<?xml version="1.0" encoding="UTF-8"?>
<svg width="30px" height="20px" viewBox="0 0 30 20" version="1.1" xmlns="http://www.w3.org/2000/svg" xmlns:xlink="http://www.w3.org/1999/xlink">
    <!-- Generator: Sketch 55.2 (78181) - https://sketchapp.com -->
    <title>PE</title>
    <desc>Created with Sketch.</desc>
    <defs>
        <linearGradient x1="100%" y1="50%" x2="0%" y2="50%" id="linearGradient-1">
            <stop stop-color="#1FF3AD" offset="0%"></stop>
            <stop stop-color="#6EE2F4" offset="100%"></stop>
        </linearGradient>
    </defs>
    <g id="Page-1" stroke="none" stroke-width="1" fill="none" fill-rule="evenodd">
        <g id="PE" fill-rule="nonzero">
            <path d="M4.371277,8.89973474 C2.50917322,8.89973474 1,7.67369612 1,6.16057218 C1,4.64744825 2.50917322,3.42140962 4.371277,3.42140962 C4.80322186,3.42140962 5.21409625,3.48988869 5.59468181,3.60972705 C5.97790119,3.3384446 6.61660015,3 7.42649678,3 C7.55291966,3 7.6674904,3.07506359 7.7175328,3.19095124 C7.76757519,3.30683888 7.7438709,3.4411632 7.65695516,3.53334656 C7.65037064,3.53861418 7.24213006,3.97846047 7.04591121,4.49732107 C7.48048988,4.95955475 7.74255399,5.53372537 7.74255399,6.16057218 C7.74255399,7.67369612 6.23338078,8.89973474 4.371277,8.89973474 Z M25.372151,8.89973474 C23.5100472,8.89973474 22.000874,7.67369612 22.000874,6.16057218 C22.000874,5.53372537 22.2629381,4.95955475 22.6975168,4.49732107 C22.5012979,3.97846047 22.0930574,3.53861418 22.0864728,3.53334656 C21.9995571,3.4411632 21.9758528,3.30683888 22.0258952,3.19095124 C22.0759376,3.07506359 22.1905083,3 22.3169312,3 C23.1268278,3 23.7655268,3.3384446 24.1487462,3.60972705 C24.5293318,3.48988869 24.9402061,3.42140962 25.372151,3.42140962 C27.2342548,3.42140962 28.743428,4.64744825 28.743428,6.16057218 C28.743428,7.67369612 27.2342548,8.89973474 25.372151,8.89973474 Z M27,9.5 C28.6546875,9.5 30,10.8453125 30,12.5 L30,14 C30,14.8296875 29.3296875,15.5 28.5,15.5 L25.40625,15.5 C25.115625,13.278125 23.775,11.4078125 21.8859375,10.371875 C22.4296875,9.8328125 23.175,9.5 24,9.5 L27,9.5 Z M14.870953,10.2741677 C11.6281688,10.2741677 9,8.13906723 9,5.50401841 C9,2.8689696 11.6281688,0.733869122 14.870953,0.733869122 C15.6231688,0.733869122 16.3386912,0.853122854 17.0014668,1.06181689 C17.668829,0.589388639 18.7810994,0 20.1915041,0 C20.4116648,0 20.6111855,0.130720437 20.6983325,0.332534446 C20.7854794,0.534348454 20.7441993,0.768269237 20.5928388,0.928803107 C20.5813721,0.937976471 19.8704364,1.70395237 19.5287286,2.60752872 C20.2855311,3.41249142 20.741906,4.4123881 20.741906,5.50401841 C20.741906,8.13906723 18.1137372,10.2741677 14.870953,10.2741677 Z M18.6,11 L18.2109375,11 C17.2359375,11.46875 16.153125,11.75 15,11.75 C13.846875,11.75 12.76875,11.46875 11.7890625,11 L11.4,11 C8.41875,11 6,13.41875 6,16.4 L6,17.75 C6,18.9921875 7.0078125,20 8.25,20 L21.75,20 C22.9921875,20 24,18.9921875 24,17.75 L24,16.4 C24,13.41875 21.58125,11 18.6,11 Z M8.1140625,10.371875 C7.5703125,9.8328125 6.825,9.5 6,9.5 L3,9.5 C1.3453125,9.5 0,10.8453125 0,12.5 L0,14 C0,14.8296875 0.6703125,15.5 1.5,15.5 L4.5890625,15.5 C4.884375,13.278125 6.225,11.4078125 8.1140625,10.371875 Z" id="Shape" fill="url(#linearGradient-1)"></path>
            <rect id="Rectangle" fill="#FFFFFF" x="3" y="6" width="3" height="1" rx="0.5"></rect>
            <rect id="Rectangle" fill="#FFFFFF" x="2" y="5" width="3" height="1" rx="0.5"></rect>
            <rect id="Rectangle" fill="#FFFFFF" transform="translate(24.500000, 6.250000) scale(1, -1) translate(-24.500000, -6.250000) " x="23" y="6" width="3" height="1" rx="0.5"></rect>
            <rect id="Rectangle" fill="#FFFFFF" transform="translate(25.500000, 5.250000) scale(1, -1) translate(-25.500000, -5.250000) " x="24" y="5" width="3" height="1" rx="0.5"></rect>
            <path d="M14.0378598,7.3863859 L12.0878641,5.43639017 C11.970712,5.31923808 11.970712,5.12928928 12.0878641,5.01212548 L12.512117,4.58786078 C12.6292691,4.47069697 12.8192297,4.47069697 12.9363817,4.58786078 L14.2499921,5.90145947 L17.0635993,3.08786407 C17.1807513,2.97071198 17.3707119,2.97071198 17.487864,3.08786407 L17.9121169,3.51212876 C18.029269,3.62928085 18.029269,3.81922965 17.9121169,3.93639346 L14.4621245,7.38639762 C14.3449607,7.50354971 14.1550119,7.50354971 14.0378598,7.3863859 L14.0378598,7.3863859 Z" id="Path" fill="#FFFFFF"></path>
        </g>
    </g>
</svg>